<svg width="1334" height="342" viewBox="0 0 1334 342" fill="none" xmlns="http://www.w3.org/2000/svg">
<circle cx="169" cy="169" r="160.5" stroke="#28A745" stroke-width="17"/>
<line x1="112" y1="46" x2="112" y2="301" stroke="#28A745" stroke-width="10"/>
<line x1="227" y1="46" x2="227" y2="301" stroke="#28A745" stroke-width="10"/>
<line x1="38" y1="112" x2="293" y2="112" stroke="#28A745" stroke-width="10"/>
<line x1="38" y1="227" x2="293" y2="227" stroke="#28A745" stroke-width="10"/>
<line x1="112.536" y1="42.4645" x2="297.536" y2="227.464" stroke="#28A745" stroke-width="10"/>
<line x1="40.5355" y1="112.464" x2="225.536" y2="297.464" stroke="#28A745" stroke-width="10"/>
<line x1="34.4645" y1="227.464" x2="219.464" y2="42.4645" stroke="#28A745" stroke-width="10"/>
<line x1="295.536" y1="119.536" x2="110.536" y2="304.536" stroke="#28A745" stroke-width="10"/>
<circle cx="112" cy="38" r="10" fill="#28A745"/>
<circle cx="39" cy="113" r="10" fill="#28A745"/>
<circle cx="301" cy="113" r="10" fill="#28A745"/>
<circle cx="112" cy="299" r="10" fill="#28A745"/>
<circle cx="226" cy="38" r="10" fill="#28A745"/>
<path d="M49 227C49 232.523 44.5228 237 39 237C33.4772 237 29 232.523 29 227C29 221.477 33.4772 217 39 217C44.5228 217 49 221.477 49 227Z" fill="#28A745"/>
<circle cx="301" cy="227" r="10" fill="#28A745"/>
<circle cx="226" cy="299" r="10" fill="#28A745"/>
<path d="M414.45 244.49C402.248 244.49 391.457 242.042 382.077 237.144C372.78 232.247 365.434 224.61 360.039 214.234C354.643 203.858 351.945 190.577 351.945 174.39C351.945 157.623 354.726 143.968 360.288 133.426C365.766 122.884 373.361 115.164 383.073 110.267C392.785 105.286 403.742 102.796 415.944 102.796C422.751 102.796 429.433 103.543 435.991 105.037C442.548 106.448 447.861 108.15 451.928 110.142L445.08 128.819C440.93 127.242 436.115 125.789 430.637 124.461C425.241 123.05 420.178 122.344 415.446 122.344C388.552 122.344 375.104 139.61 375.104 174.141C375.104 190.66 378.383 203.318 384.941 212.117C391.499 220.833 401.252 225.191 414.201 225.191C421.506 225.191 428.022 224.444 433.75 222.95C439.56 221.373 444.831 219.463 449.562 217.222V237.144C444.997 239.551 439.934 241.377 434.372 242.623C428.894 243.868 422.253 244.49 414.45 244.49ZM527.756 226.187C531.159 226.187 534.646 225.938 538.215 225.44C541.784 224.942 544.689 224.236 546.931 223.323V240.506C544.523 241.668 541.079 242.623 536.596 243.37C532.197 244.117 527.963 244.49 523.896 244.49C516.757 244.49 510.2 243.245 504.223 240.755C498.164 238.348 493.266 234.114 489.531 228.055C485.795 221.912 483.928 213.321 483.928 202.281V122.718H464.504V112.01L484.177 103.045L493.017 73.9092H506.34V105.286H545.81V122.718H506.34V201.658C506.34 210.042 508.332 216.226 512.316 220.21C516.301 224.195 521.447 226.187 527.756 226.187ZM626.12 103.045C642.722 103.045 655.007 106.697 662.976 114.002C671.027 121.307 675.053 132.928 675.053 148.865V242H658.742L654.384 222.576H653.388C647.412 230.047 641.103 235.567 634.462 239.136C627.822 242.706 618.815 244.49 607.443 244.49C595.075 244.49 584.782 241.253 576.564 234.778C568.43 228.221 564.362 217.969 564.362 204.024C564.362 190.411 569.716 179.91 580.424 172.522C591.132 165.135 607.609 161.109 629.855 160.445L653.139 159.573V151.48C653.139 140.108 650.649 132.222 645.668 127.823C640.771 123.34 633.798 121.099 624.75 121.099C617.612 121.099 610.805 122.178 604.331 124.336C597.939 126.412 591.921 128.819 586.276 131.558L579.428 114.749C585.405 111.512 592.46 108.772 600.595 106.531C608.73 104.207 617.238 103.045 626.12 103.045ZM652.89 187.464V175.137L632.719 176.009C615.703 176.673 603.916 179.371 597.358 184.102C590.8 188.833 587.521 195.557 587.521 204.273C587.521 211.91 589.846 217.513 594.494 221.082C599.226 224.651 605.244 226.436 612.548 226.436C623.92 226.436 633.466 223.24 641.186 216.849C648.989 210.457 652.89 200.662 652.89 187.464ZM765.698 102.796C784.042 102.796 798.32 109.686 808.53 123.465H809.775L812.763 105.286H830.693V244.241C830.693 263.831 825.712 278.565 815.751 288.443C805.791 298.321 790.351 303.26 769.433 303.26C749.345 303.26 732.951 300.354 720.251 294.544V273.875C733.781 281.014 750.632 284.583 770.803 284.583C782.507 284.583 791.721 281.138 798.444 274.249C805.168 267.359 808.53 257.979 808.53 246.109V240.755C808.53 238.68 808.613 235.733 808.779 231.915C808.945 228.096 809.111 225.44 809.277 223.946H808.281C799.067 237.642 784.956 244.49 765.947 244.49C748.266 244.49 734.445 238.306 724.484 225.938C714.523 213.487 709.543 196.138 709.543 173.892C709.543 159.366 711.784 146.79 716.267 136.165C720.749 125.54 727.182 117.322 735.566 111.512C744.033 105.701 754.077 102.796 765.698 102.796ZM768.686 121.597C757.314 121.597 748.474 126.163 742.165 135.293C735.856 144.341 732.702 157.291 732.702 174.141C732.702 190.992 735.773 203.899 741.916 212.864C748.059 221.746 757.148 226.187 769.184 226.187C782.963 226.187 793.007 222.493 799.316 215.105C805.625 207.718 808.779 195.765 808.779 179.246V173.892C808.779 155.381 805.542 142.059 799.067 133.924C792.592 125.706 782.465 121.597 768.686 121.597ZM937.897 102.796C940.471 102.796 943.168 102.92 945.991 103.169C948.896 103.418 951.552 103.792 953.959 104.29L951.096 124.959C948.938 124.461 946.489 124.046 943.75 123.714C941.01 123.382 938.562 123.216 936.403 123.216C929.348 123.216 922.79 125.125 916.73 128.943C910.588 132.762 905.69 138.116 902.038 145.005C898.386 151.895 896.56 159.905 896.56 169.036V242H874.147V105.286H892.451L895.065 130.313H896.062C900.295 122.842 905.939 116.409 912.995 111.014C920.051 105.535 928.352 102.796 937.897 102.796ZM1026.05 103.045C1042.65 103.045 1054.94 106.697 1062.91 114.002C1070.96 121.307 1074.98 132.928 1074.98 148.865V242H1058.67L1054.32 222.576H1053.32C1047.34 230.047 1041.03 235.567 1034.39 239.136C1027.75 242.706 1018.75 244.49 1007.38 244.49C995.007 244.49 984.714 241.253 976.496 234.778C968.361 228.221 964.294 217.969 964.294 204.024C964.294 190.411 969.648 179.91 980.356 172.522C991.064 165.135 1007.54 161.109 1029.79 160.445L1053.07 159.573V151.48C1053.07 140.108 1050.58 132.222 1045.6 127.823C1040.7 123.34 1033.73 121.099 1024.68 121.099C1017.54 121.099 1010.74 122.178 1004.26 124.336C997.871 126.412 991.853 128.819 986.208 131.558L979.36 114.749C985.336 111.512 992.392 108.772 1000.53 106.531C1008.66 104.207 1017.17 103.045 1026.05 103.045ZM1052.82 187.464V175.137L1032.65 176.009C1015.63 176.673 1003.85 179.371 997.29 184.102C990.732 188.833 987.453 195.557 987.453 204.273C987.453 211.91 989.777 217.513 994.426 221.082C999.157 224.651 1005.18 226.436 1012.48 226.436C1023.85 226.436 1033.4 223.24 1041.12 216.849C1048.92 210.457 1052.82 200.662 1052.82 187.464ZM1267.11 102.796C1282.63 102.796 1294.21 106.78 1301.85 114.749C1309.48 122.718 1313.3 135.459 1313.3 152.974V242H1291.14V153.97C1291.14 132.388 1281.88 121.597 1263.37 121.597C1250.09 121.597 1240.59 125.457 1234.86 133.177C1229.21 140.813 1226.39 151.937 1226.39 166.546V242H1204.1V153.97C1204.1 132.388 1194.77 121.597 1176.09 121.597C1162.31 121.597 1152.76 125.872 1147.45 134.422C1142.22 142.889 1139.61 155.132 1139.61 171.153V242H1117.19V105.286H1135.25L1138.61 123.963H1139.86C1144.09 116.824 1149.82 111.512 1157.04 108.025C1164.34 104.539 1172.06 102.796 1180.2 102.796C1201.61 102.796 1215.56 110.433 1222.03 125.706H1223.28C1227.84 117.903 1234.03 112.134 1241.83 108.399C1249.72 104.664 1258.14 102.796 1267.11 102.796Z" fill="url(#paint0_linear_3_4)"/>
<path d="M414.45 244.49C402.248 244.49 391.457 242.042 382.077 237.144C372.78 232.247 365.434 224.61 360.039 214.234C354.643 203.858 351.945 190.577 351.945 174.39C351.945 157.623 354.726 143.968 360.288 133.426C365.766 122.884 373.361 115.164 383.073 110.267C392.785 105.286 403.742 102.796 415.944 102.796C422.751 102.796 429.433 103.543 435.991 105.037C442.548 106.448 447.861 108.15 451.928 110.142L445.08 128.819C440.93 127.242 436.115 125.789 430.637 124.461C425.241 123.05 420.178 122.344 415.446 122.344C388.552 122.344 375.104 139.61 375.104 174.141C375.104 190.66 378.383 203.318 384.941 212.117C391.499 220.833 401.252 225.191 414.201 225.191C421.506 225.191 428.022 224.444 433.75 222.95C439.56 221.373 444.831 219.463 449.562 217.222V237.144C444.997 239.551 439.934 241.377 434.372 242.623C428.894 243.868 422.253 244.49 414.45 244.49ZM527.756 226.187C531.159 226.187 534.646 225.938 538.215 225.44C541.784 224.942 544.689 224.236 546.931 223.323V240.506C544.523 241.668 541.079 242.623 536.596 243.37C532.197 244.117 527.963 244.49 523.896 244.49C516.757 244.49 510.2 243.245 504.223 240.755C498.164 238.348 493.266 234.114 489.531 228.055C485.795 221.912 483.928 213.321 483.928 202.281V122.718H464.504V112.01L484.177 103.045L493.017 73.9092H506.34V105.286H545.81V122.718H506.34V201.658C506.34 210.042 508.332 216.226 512.316 220.21C516.301 224.195 521.447 226.187 527.756 226.187ZM626.12 103.045C642.722 103.045 655.007 106.697 662.976 114.002C671.027 121.307 675.053 132.928 675.053 148.865V242H658.742L654.384 222.576H653.388C647.412 230.047 641.103 235.567 634.462 239.136C627.822 242.706 618.815 244.49 607.443 244.49C595.075 244.49 584.782 241.253 576.564 234.778C568.43 228.221 564.362 217.969 564.362 204.024C564.362 190.411 569.716 179.91 580.424 172.522C591.132 165.135 607.609 161.109 629.855 160.445L653.139 159.573V151.48C653.139 140.108 650.649 132.222 645.668 127.823C640.771 123.34 633.798 121.099 624.75 121.099C617.612 121.099 610.805 122.178 604.331 124.336C597.939 126.412 591.921 128.819 586.276 131.558L579.428 114.749C585.405 111.512 592.46 108.772 600.595 106.531C608.73 104.207 617.238 103.045 626.12 103.045ZM652.89 187.464V175.137L632.719 176.009C615.703 176.673 603.916 179.371 597.358 184.102C590.8 188.833 587.521 195.557 587.521 204.273C587.521 211.91 589.846 217.513 594.494 221.082C599.226 224.651 605.244 226.436 612.548 226.436C623.92 226.436 633.466 223.24 641.186 216.849C648.989 210.457 652.89 200.662 652.89 187.464ZM765.698 102.796C784.042 102.796 798.32 109.686 808.53 123.465H809.775L812.763 105.286H830.693V244.241C830.693 263.831 825.712 278.565 815.751 288.443C805.791 298.321 790.351 303.26 769.433 303.26C749.345 303.26 732.951 300.354 720.251 294.544V273.875C733.781 281.014 750.632 284.583 770.803 284.583C782.507 284.583 791.721 281.138 798.444 274.249C805.168 267.359 808.53 257.979 808.53 246.109V240.755C808.53 238.68 808.613 235.733 808.779 231.915C808.945 228.096 809.111 225.44 809.277 223.946H808.281C799.067 237.642 784.956 244.49 765.947 244.49C748.266 244.49 734.445 238.306 724.484 225.938C714.523 213.487 709.543 196.138 709.543 173.892C709.543 159.366 711.784 146.79 716.267 136.165C720.749 125.54 727.182 117.322 735.566 111.512C744.033 105.701 754.077 102.796 765.698 102.796ZM768.686 121.597C757.314 121.597 748.474 126.163 742.165 135.293C735.856 144.341 732.702 157.291 732.702 174.141C732.702 190.992 735.773 203.899 741.916 212.864C748.059 221.746 757.148 226.187 769.184 226.187C782.963 226.187 793.007 222.493 799.316 215.105C805.625 207.718 808.779 195.765 808.779 179.246V173.892C808.779 155.381 805.542 142.059 799.067 133.924C792.592 125.706 782.465 121.597 768.686 121.597ZM937.897 102.796C940.471 102.796 943.168 102.92 945.991 103.169C948.896 103.418 951.552 103.792 953.959 104.29L951.096 124.959C948.938 124.461 946.489 124.046 943.75 123.714C941.01 123.382 938.562 123.216 936.403 123.216C929.348 123.216 922.79 125.125 916.73 128.943C910.588 132.762 905.69 138.116 902.038 145.005C898.386 151.895 896.56 159.905 896.56 169.036V242H874.147V105.286H892.451L895.065 130.313H896.062C900.295 122.842 905.939 116.409 912.995 111.014C920.051 105.535 928.352 102.796 937.897 102.796ZM1026.05 103.045C1042.65 103.045 1054.94 106.697 1062.91 114.002C1070.96 121.307 1074.98 132.928 1074.98 148.865V242H1058.67L1054.32 222.576H1053.32C1047.34 230.047 1041.03 235.567 1034.39 239.136C1027.75 242.706 1018.75 244.49 1007.38 244.49C995.007 244.49 984.714 241.253 976.496 234.778C968.361 228.221 964.294 217.969 964.294 204.024C964.294 190.411 969.648 179.91 980.356 172.522C991.064 165.135 1007.54 161.109 1029.79 160.445L1053.07 159.573V151.48C1053.07 140.108 1050.58 132.222 1045.6 127.823C1040.7 123.34 1033.73 121.099 1024.68 121.099C1017.54 121.099 1010.74 122.178 1004.26 124.336C997.871 126.412 991.853 128.819 986.208 131.558L979.36 114.749C985.336 111.512 992.392 108.772 1000.53 106.531C1008.66 104.207 1017.17 103.045 1026.05 103.045ZM1052.82 187.464V175.137L1032.65 176.009C1015.63 176.673 1003.85 179.371 997.29 184.102C990.732 188.833 987.453 195.557 987.453 204.273C987.453 211.91 989.777 217.513 994.426 221.082C999.157 224.651 1005.18 226.436 1012.48 226.436C1023.85 226.436 1033.4 223.24 1041.12 216.849C1048.92 210.457 1052.82 200.662 1052.82 187.464ZM1267.11 102.796C1282.63 102.796 1294.21 106.78 1301.85 114.749C1309.48 122.718 1313.3 135.459 1313.3 152.974V242H1291.14V153.97C1291.14 132.388 1281.88 121.597 1263.37 121.597C1250.09 121.597 1240.59 125.457 1234.86 133.177C1229.21 140.813 1226.39 151.937 1226.39 166.546V242H1204.1V153.97C1204.1 132.388 1194.77 121.597 1176.09 121.597C1162.31 121.597 1152.76 125.872 1147.45 134.422C1142.22 142.889 1139.61 155.132 1139.61 171.153V242H1117.19V105.286H1135.25L1138.61 123.963H1139.86C1144.09 116.824 1149.82 111.512 1157.04 108.025C1164.34 104.539 1172.06 102.796 1180.2 102.796C1201.61 102.796 1215.56 110.433 1222.03 125.706H1223.28C1227.84 117.903 1234.03 112.134 1241.83 108.399C1249.72 104.664 1258.14 102.796 1267.11 102.796Z" fill="url(#paint1_radial_3_4)"/>
<defs>
<linearGradient id="paint0_linear_3_4" x1="836" y1="5" x2="836" y2="342" gradientUnits="userSpaceOnUse">
<stop offset="0.203125" stop-color="#487252"/>
<stop offset="1" stop-color="#28312A" stop-opacity="0"/>
</linearGradient>
<radialGradient id="paint1_radial_3_4" cx="0" cy="0" r="1" gradientUnits="userSpaceOnUse" gradientTransform="translate(836 173.5) rotate(90) scale(168.5 498)">
<stop stop-opacity="0"/>
<stop offset="0.859375" stop-color="#487252"/>
</radialGradient>
</defs>
</svg>
